<svg xmlns="http://www.w3.org/2000/svg" viewBox="0 0 177.52 73.76"><defs><style>.cls-1{fill:#00b451;}</style></defs><title>vr-logo</title><g id="Layer_2" data-name="Layer 2"><g id="Layer_1-2" data-name="Layer 1"><path class="cls-1" d="M151.77,73.76c-10,0-14.36-4.7-17.27-9.15l-1.75-2.71c-3-4.73-6-7.85-14.44-7.85H96.86l7.56-11.63c2.18-3.35,6.71-9,17.35-9h24.82c2.16,0,6.53-1.72,6.53-6.31,0-4.88-4.4-6.42-6.53-6.42H114.05c-11.25,0-15.56,6.42-17.28,9.08L74.13,64.5c-3.77,5.89-9.26,9.23-16.08,9.23S45.74,70,42,64.5L0,0H17.14C25.74,0,31,3.67,34.5,9.11L58,45.21,81.44,9.13C84.32,4.58,89.26,0,98.81,0h51.37a27.11,27.11,0,0,1,27.34,27.06,26.8,26.8,0,0,1-19.9,26.17l-1,.28,13.17,20.24Z"/></g></g></svg>